<svg xmlns="http://www.w3.org/2000/svg" viewBox="0 0 1200 800" fill="none" role="img" aria-label="Visit records and training modules per tech">
  <rect width="1200" height="800" fill="#0d1117"/>
  <rect width="1200" height="4" fill="#22d3ee"/>
  <text x="60" y="72" fill="#e2e8f0" font-family="system-ui,sans-serif" font-size="32" font-weight="700">Proof-of-Work Packs</text>
  <text x="60" y="112" fill="#94a3b8" font-family="system-ui,sans-serif" font-size="22">Before/after evidence for every maintenance visit</text>

  <!-- Visit record card -->
  <rect x="60" y="160" width="520" height="560" rx="16" fill="#111820" stroke="#e2e8f0" stroke-width="2" stroke-opacity="0.1"/>
  <text x="100" y="220" fill="#e2e8f0" font-family="system-ui" font-size="22" font-weight="700">Visit record</text>
  <text x="100" y="255" fill="#94a3b8" font-family="system-ui" font-size="16">Panel clean · 14 Jun 2026 · 09:42 AEST</text>

  <rect x="100" y="290" width="180" height="120" rx="8" fill="#161f2c" stroke="#e2e8f0" stroke-width="1.5"/>
  <text x="120" y="330" fill="#94a3b8" font-family="system-ui" font-size="14">Before</text>
  <rect x="300" y="290" width="180" height="120" rx="8" fill="#0e9b8a" fill-opacity="0.2" stroke="#0e9b8a" stroke-width="2"/>
  <text x="320" y="330" fill="#e2e8f0" font-family="system-ui" font-size="14" font-weight="600">After</text>

  <rect x="100" y="440" width="380" height="44" rx="8" fill="#0d1117"/>
  <text x="120" y="470" fill="#e2e8f0" font-family="system-ui" font-size="16">Geo -27.47, 153.03 · timestamped</text>

  <rect x="100" y="500" width="380" height="44" rx="8" fill="#0d1117"/>
  <text x="120" y="530" fill="#e2e8f0" font-family="system-ui" font-size="16">32 frames · 6 coaching events</text>

  <rect x="100" y="560" width="380" height="44" rx="8" fill="#0d1117"/>
  <text x="120" y="590" fill="#e2e8f0" font-family="system-ui" font-size="16">Summary ready for customer handover</text>

  <!-- Per-tech schematic -->
  <rect x="620" y="160" width="520" height="560" rx="16" fill="#111820" stroke="#e2e8f0" stroke-width="2" stroke-opacity="0.1"/>
  <text x="660" y="220" fill="#e2e8f0" font-family="system-ui" font-size="22" font-weight="700">Crew overview</text>
  <text x="660" y="255" fill="#94a3b8" font-family="system-ui" font-size="15">example data</text>

  <rect x="660" y="290" width="140" height="100" rx="10" fill="#0d1117" stroke="#22d3ee" stroke-width="2.5"/>
  <text x="730" y="340" text-anchor="middle" fill="#e2e8f0" font-family="system-ui" font-size="32" font-weight="700">12</text>
  <text x="730" y="370" text-anchor="middle" fill="#94a3b8" font-family="system-ui" font-size="14">Jobs today</text>

  <rect x="820" y="290" width="140" height="100" rx="10" fill="#0d1117" stroke="#e2e8f0" stroke-width="1.5" stroke-opacity="0.12"/>
  <text x="890" y="340" text-anchor="middle" fill="#e2e8f0" font-family="system-ui" font-size="32" font-weight="700">8</text>
  <text x="890" y="370" text-anchor="middle" fill="#94a3b8" font-family="system-ui" font-size="14">Modules ready</text>

  <rect x="980" y="290" width="120" height="100" rx="10" fill="#0d1117" stroke="#e2e8f0" stroke-width="1.5" stroke-opacity="0.12"/>
  <text x="1040" y="340" text-anchor="middle" fill="#e2e8f0" font-family="system-ui" font-size="32" font-weight="700">3</text>
  <text x="1040" y="370" text-anchor="middle" fill="#94a3b8" font-family="system-ui" font-size="14">Issues caught</text>

  <text x="660" y="440" fill="#94a3b8" font-family="system-ui" font-size="17">Tech A</text>
  <rect x="740" y="420" width="360" height="24" rx="6" fill="#0e9b8a" fill-opacity="0.4"/>
  <text x="660" y="490" fill="#94a3b8" font-family="system-ui" font-size="17">Tech B</text>
  <rect x="740" y="470" width="280" height="24" rx="6" fill="#94a3b8" fill-opacity="0.2"/>
  <text x="660" y="540" fill="#94a3b8" font-family="system-ui" font-size="17">Tech C</text>
  <rect x="740" y="520" width="320" height="24" rx="6" fill="#94a3b8" fill-opacity="0.2"/>

  <text x="60" y="760" fill="#94a3b8" font-family="system-ui" font-size="20">One source of truth · no chasing five phones after the van leaves</text>
</svg>
